<?xml version="1.0" standalone="no"?><!DOCTYPE svg PUBLIC "-//W3C//DTD SVG 1.1//EN" "http://www.w3.org/Graphics/SVG/1.1/DTD/svg11.dtd"><svg class="icon" width="200px" height="200.00px" viewBox="0 0 1024 1024" version="1.1" xmlns="http://www.w3.org/2000/svg"><path fill="#333333" d="M512 1024C229.218462 1024 0 794.781538 0 512S229.218462 0 512 0s512 229.218462 512 512-229.218462 512-512 512z m123.451077-722.313846l-34.323692 34.304a376.044308 376.044308 0 0 0-78.887385-8.310154c-138.456615 0-258.481231 74.929231-317.44 184.32a344.556308 344.556308 0 0 0 103.581538 116.716308l-32.059076 32.078769a417.988923 417.988923 0 0 1-132.962462-149.149539c70.281846-133.494154 213.326769-224.925538 378.368-224.925538 39.384615 0 77.528615 5.198769 113.723077 14.966154z m120.438154 53.326769a418.658462 418.658462 0 0 1 144.226461 156.632615c-70.301538 133.513846-213.346462 224.925538-378.387692 224.925539-44.701538 0-87.788308-6.715077-128.256-19.140923l33.358769-33.358769c30.365538 7.975385 62.365538 12.248615 95.409231 12.248615 138.456615 0 258.461538-74.909538 317.44-184.32-27.076923-50.254769-67.052308-93.223385-115.790769-125.006769l32-31.980308zM467.160615 643.721846l178.628923-178.609231c6.183385 15.202462 9.570462 31.763692 9.570462 49.033847 0 75.323077-64.196923 136.369231-143.36 136.36923-15.655385 0-30.72-2.382769-44.839385-6.793846z m-90.190769-83.593846a130.185846 130.185846 0 0 1-8.329846-45.961846c0-75.264 64.196923-136.369231 143.36-136.369231 14.434462 0 28.356923 2.028308 41.491692 5.809231l-176.502154 176.521846zM512 983.04c260.135385 0 471.04-210.904615 471.04-471.04S772.135385 40.96 512 40.96 40.96 251.864615 40.96 512 251.864615 983.04 512 983.04z m295.030154-763.766154c8.054154 8.073846 8.014769 20.952615 0.039384 28.928l-579.347692 579.347692a20.401231 20.401231 0 0 1-28.928-0.039384 20.401231 20.401231 0 0 1-0.039384-28.928l579.347692-579.347692a20.401231 20.401231 0 0 1 28.928 0.039384z" /></svg>