<?xml version="1.0" standalone="no"?><!DOCTYPE svg PUBLIC "-//W3C//DTD SVG 1.1//EN" "http://www.w3.org/Graphics/SVG/1.1/DTD/svg11.dtd"><svg class="icon" width="200px" height="200.00px" viewBox="0 0 1024 1024" version="1.1" xmlns="http://www.w3.org/2000/svg"><path fill="#333333" d="M468 723.7c0 23.8 19.1 42.7 42.7 42.7 23.8 0 42.7-19.1 42.7-42.7 0-23.8-19.1-42.7-42.7-42.7-23.7 0-42.7 19.1-42.7 42.7z m2.4-427.3l17.8 320.7c0.7 11.7 10.7 21.2 22.5 21.2 11.5 0 21.9-9.5 22.5-21.2L551 296.4c1.3-23.6-16.8-42.6-40.4-42.6-23.6-0.1-41.6 19-40.2 42.6z m40.3 662.3c-247.8 0-448.6-200.9-448.6-448.6S262.9 61.5 510.7 61.5s448.6 200.9 448.6 448.6-200.8 448.6-448.6 448.6z" /></svg>